<svg width="30" height="30" viewBox="0 0 30 30" fill="none" xmlns="http://www.w3.org/2000/svg">
<g clip-path="url(#clip0_52_220)">
<path d="M15 30C12.0333 30 9.13319 29.1202 6.66645 27.472C4.19972 25.8238 2.27713 23.4811 1.14181 20.7402C0.00649922 17.9993 -0.290551 14.9833 0.288228 12.0736C0.867006 9.16391 2.29562 6.49116 4.3934 4.39337C6.49119 2.29559 9.16394 0.866975 12.0737 0.288197C14.9834 -0.290581 17.9994 0.0064687 20.7403 1.14178C23.4811 2.2771 25.8238 4.19969 27.4721 6.66642C29.1203 9.13316 30 12.0333 30 15C29.9957 18.9769 28.4139 22.7897 25.6018 25.6018C22.7897 28.4139 18.9769 29.9956 15 30ZM15 0.937476C12.2187 0.937476 9.49987 1.76223 7.1873 3.30743C4.87473 4.85264 3.07231 7.0489 2.00795 9.61849C0.943594 12.1881 0.665109 15.0156 1.20771 17.7434C1.75032 20.4713 3.08964 22.977 5.05632 24.9437C7.02299 26.9103 9.52869 28.2497 12.2565 28.7923C14.9844 29.3349 17.8119 29.0564 20.3815 27.992C22.9511 26.9277 25.1473 25.1252 26.6925 22.8127C28.2378 20.5001 29.0625 17.7813 29.0625 15C29.0582 11.2717 27.5752 7.69737 24.9389 5.06108C22.3026 2.42479 18.7283 0.941818 15 0.937476Z" fill="white"/>
<path d="M22.2656 10.3125H7.73438C7.61005 10.3125 7.49083 10.2631 7.40292 10.1752C7.31501 10.0873 7.26562 9.96807 7.26562 9.84375C7.26562 9.71943 7.31501 9.6002 7.40292 9.51229C7.49083 9.42439 7.61005 9.375 7.73438 9.375H22.2656C22.3899 9.375 22.5092 9.42439 22.5971 9.51229C22.685 9.6002 22.7344 9.71943 22.7344 9.84375C22.7344 9.96807 22.685 10.0873 22.5971 10.1752C22.5092 10.2631 22.3899 10.3125 22.2656 10.3125Z" fill="white"/>
<path d="M22.2656 15.4688H7.73438C7.61005 15.4688 7.49083 15.4194 7.40292 15.3315C7.31501 15.2435 7.26562 15.1243 7.26562 15C7.26562 14.8757 7.31501 14.7565 7.40292 14.6685C7.49083 14.5806 7.61005 14.5312 7.73438 14.5312H22.2656C22.3899 14.5312 22.5092 14.5806 22.5971 14.6685C22.685 14.7565 22.7344 14.8757 22.7344 15C22.7344 15.1243 22.685 15.2435 22.5971 15.3315C22.5092 15.4194 22.3899 15.4688 22.2656 15.4688Z" fill="white"/>
<path d="M22.2656 20.625H7.73438C7.61005 20.625 7.49083 20.5756 7.40292 20.4877C7.31501 20.3998 7.26562 20.2806 7.26562 20.1562C7.26562 20.0319 7.31501 19.9127 7.40292 19.8248C7.49083 19.7369 7.61005 19.6875 7.73438 19.6875H22.2656C22.3899 19.6875 22.5092 19.7369 22.5971 19.8248C22.685 19.9127 22.7344 20.0319 22.7344 20.1562C22.7344 20.2806 22.685 20.3998 22.5971 20.4877C22.5092 20.5756 22.3899 20.625 22.2656 20.625Z" fill="white"/>
</g>
<defs>
<clipPath id="clip0_52_220">
<rect width="30" height="30" fill="white"/>
</clipPath>
</defs>
</svg>
