<svg width="46" height="44" viewBox="0 0 46 44" fill="none" xmlns="http://www.w3.org/2000/svg">
<g clip-path="url(#clip0_53_266)">
<path d="M23.5 43.0625C18.0069 43.0625 12.8442 40.924 8.96088 37.0392C2.61294 30.6927 1.106 21.068 5.20969 13.0927C5.58128 12.3715 6.46547 12.088 7.18809 12.4582C7.90925 12.8283 8.19419 13.7139 7.82259 14.4366C4.30494 21.2736 5.59597 29.5221 11.0377 34.9623C14.3659 38.292 18.7912 40.125 23.5 40.125C28.2074 40.125 32.6342 38.292 35.9624 34.9623C39.2906 31.6327 41.125 27.2073 41.125 22.5C41.125 17.7912 39.292 13.3658 35.9624 10.0377C32.6327 6.70947 28.2088 4.875 23.5 4.875C18.7912 4.875 14.3659 6.70947 11.0377 10.0377C10.4634 10.6119 9.53516 10.6119 8.96088 10.0377C8.38659 9.46337 8.38659 8.53512 8.96088 7.96084C12.8442 4.07747 18.0069 1.9375 23.5 1.9375C28.9932 1.9375 34.1573 4.07747 38.0392 7.96084C41.924 11.8442 44.0625 17.0069 44.0625 22.5C44.0625 27.9917 41.924 33.1558 38.0392 37.0392C34.1573 40.924 28.9932 43.0625 23.5 43.0625Z" fill="black"/>
<path d="M23.5 31.3125C22.6892 31.3125 22.0312 30.656 22.0312 29.8438V15.1562C22.0312 14.3455 22.6892 13.6875 23.5 13.6875C24.3108 13.6875 24.9688 14.3455 24.9688 15.1562V29.8438C24.9688 30.656 24.3108 31.3125 23.5 31.3125Z" fill="black"/>
<path d="M30.8438 23.9688H16.1562C15.3455 23.9688 14.6875 23.3108 14.6875 22.5C14.6875 21.6892 15.3455 21.0312 16.1562 21.0312H30.8438C31.656 21.0312 32.3125 21.6892 32.3125 22.5C32.3125 23.3108 31.656 23.9688 30.8438 23.9688Z" fill="black"/>
</g>
<defs>
<clipPath id="clip0_53_266">
<rect width="47" height="47" fill="white" transform="translate(0 -1)"/>
</clipPath>
</defs>
</svg>
